<svg id="Layer_1" fill="#ffffff" enable-background="new 0 0 512.095 512.095" height="512" viewBox="0 0 512.095 512.095" width="512" xmlns="http://www.w3.org/2000/svg"><g><path d="m512.095 119.669c0-57.15-46.654-103.645-104-103.645-31.883 0-60.456 14.377-79.549 36.962-147.552-67.391-317.418 33.745-327.952 195.735-9.832 137.099 103.818 252.956 240.3 247.139 141.904-6.45 240.021-131.649 220.792-265.284 24.536-30.232 50.409-71.459 50.409-110.907zm-184.213 128.356c-.59-22.422-2.418-44.226-5.396-64.839 13.397 25.187 31.781 48.074 47.022 64.839zm-54.224 163.176c-12.067 32.583-27.994 52.823-41.563 52.823s-29.496-20.241-41.563-52.823c-3.618-9.769-6.83-20.364-9.612-31.634 33.488-4.721 68.809-4.728 102.351 0-2.783 11.271-5.995 21.865-9.613 31.634zm-240.923-131.176h103.572c.68 25.843 3.005 50.865 6.839 74.189-26.863 6.415-51.548 15.723-72.607 27.562-21.201-29.009-34.794-63.91-37.804-101.751zm37.726-133.798c21.077 11.861 45.789 21.185 72.686 27.608-3.835 23.324-6.159 48.346-6.839 74.189h-103.574c2.918-37.063 15.875-71.942 37.727-101.797zm79.003 239.32c5.749 23.791 14.372 49.652 26.914 70.571-32.223-9.361-61.111-26.629-84.424-49.553 16.942-8.824 36.401-15.905 57.51-21.018zm25.099-37.355c-3.468-21.36-5.59-44.342-6.248-68.167h127.558c-.657 23.825-2.779 46.807-6.248 68.167-37.792-5.556-77.269-5.556-115.062 0zm-6.247-100.167c.657-23.825 2.779-46.807 6.248-68.167 38.373 5.641 78.286 5.451 115.072.058 3.463 21.344 5.582 44.305 6.239 68.109zm22.215-131.177c12.067-32.583 27.994-52.823 41.563-52.823s29.496 20.241 41.563 52.823c3.62 9.773 6.832 20.372 9.615 31.646-32.942 4.659-68.477 4.763-102.354-.013 2.783-11.269 5.995-21.864 9.613-31.633zm217.564-68.823c39.701 0 72 32.14 72 71.645 0 42.576-45.156 95.977-72 122.436-26.849-26.464-72-79.863-72-122.436 0-39.506 32.298-71.645 72-71.645zm-103.403 60.546c-4.466-12.484-9.973-25.117-16.871-36.625 8.167 2.361 16.173 5.244 23.964 8.624-3.61 8.8-6.041 18.197-7.093 28.001zm-128.283-36.692c-12.574 20.952-21.202 46.854-26.945 70.624-21.149-5.122-40.643-12.22-57.608-21.068 23.845-23.497 53.127-40.472 84.553-49.556zm111.37 384.293c12.578-20.959 21.207-46.874 26.946-70.625 21.106 5.112 40.563 12.192 57.504 21.014-23.706 23.418-52.704 40.45-84.45 49.611zm105.797-74.438c-21.043-11.82-45.702-21.113-72.533-27.52 3.835-23.324 6.159-48.346 6.839-74.189h103.553c-2.946 37.054-16.39 72.228-37.859 101.709z"/><circle cx="408.095" cy="120.025" r="32"/></g></svg>